<svg xmlns="http://www.w3.org/2000/svg" viewBox="0 0 512 512" width="512" height="512">
  <!-- 渐变背景 -->
  <defs>
    <linearGradient id="bgGradient" x1="0%" y1="0%" x2="100%" y2="100%">
      <stop offset="0%" stop-color="#ec4899" />
      <stop offset="100%" stop-color="#8b5cf6" />
    </linearGradient>
  </defs>
  
  <!-- 圆形背景 -->
  <circle cx="256" cy="256" r="256" fill="url(#bgGradient)" />
  
  <!-- fa-compress-alt图标 - 白色 -->
  <path fill="white" d="M326.6 166.6l48.7-48.7c6.2-6.2 6.2-16.4 0-22.6l-22.6-22.6c-6.2-6.2-16.4-6.2-22.6 0l-48.7 48.7c-6.2 6.2-6.2 16.4 0 22.6l22.6 22.6c6.3 6.3 16.4 6.3 22.6 0zM177.4 287.4l-48.7 48.7c-6.2 6.2-6.2 16.4 0 22.6l22.6 22.6c6.2 6.2 16.4 6.2 22.6 0l48.7-48.7c6.2-6.2 6.2-16.4 0-22.6l-22.6-22.6c-6.2-6.3-16.4-6.3-22.6 0zM448 64v128c0 8.8-7.2 16-16 16h-32c-8.8 0-16-7.2-16-16v-64h-64c-8.8 0-16-7.2-16-16V80c0-8.8 7.2-16 16-16h112c8.8 0 16 7.2 16 16zM64 448V320c0-8.8 7.2-16 16-16h32c8.8 0 16 7.2 16 16v64h64c8.8 0 16 7.2 16 16v32c0 8.8-7.2 16-16 16H80c-8.8 0-16-7.2-16-16z" transform="scale(0.7) translate(110, 110)"/>
</svg>